Coordinates
version=1
nRows=12
nColumns=33
inDegrees=yes

Units are S.I. units (second, meters, Newtons, ...)
Angles are in degrees.

endheader
time	ground_thorax_rot_x	ground_thorax_rot_y	ground_thorax_rot_z	ground_thorax_tx	ground_thorax_ty	ground_thorax_tz	clav_prot_r	clav_elev_r	scapula_abduction_r	scapula_elevation_r	scapula_upward_rot_r	scapula_winging_r	shoulder_elv_r	plane_of_elev_r	axial_rot_r	elbow_flexion_r	pro_sup_r	wrist_flex_r	wrist_dev_r	clav_prot_l	clav_elev_l	scapula_abduction_l	scapula_elevation_l	scapula_upward_rot_l	scapula_winging_l	shoulder_elv_l	plane_of_elev_l	axial_rot_l	elbow_flexion_l	pro_sup_l	wrist_flex_l	wrist_dev_l
      4.01000000	    -35.49648373	    -16.19333661	     25.97621501	   -179.61601928	    814.40101327	      6.23388453	      8.89338942	    -45.00000000	     41.33693055	    -45.00000000	    -45.00000000	  -4056.69785827	  -3704.56260592	    143.83050618	    179.99999979	   1449.18365057	     50.34359514	     25.26232686	     13.67104835	     15.65660958	     38.23570976	    -38.76599014	    -45.00000000	    -45.00000000	    803.20117013	  -1172.50878404	    133.53602966	   -179.99999979	   -349.24793888	     18.14263692	      7.50934706	    -21.22250376
      4.02000000	    -35.70874881	    -15.77481512	     25.39916517	   -183.37511700	    815.99980750	      6.16625435	      8.71234770	    -45.00000000	     41.25344041	    -45.00000000	    -45.00000000	  -4056.61194269	  -3704.24534746	    143.90459197	    179.99999979	   1449.33234930	     50.68183807	     25.21996587	     13.27456989	     15.59992479	     38.60891696	    -38.67450987	    -45.00000000	    -45.00000000	    803.38782589	  -1172.15937619	    133.58947561	   -179.99999979	   -348.81541739	     18.41826256	      7.55343518	    -21.41321732
      4.03000000	    -35.83409758	    -15.34106140	     25.15091292	   -187.10162429	    817.53556409	      6.11159705	      8.78021995	    -45.00000000	     41.05570346	    -45.00000000	    -45.00000000	  -4056.93823993	  -3704.15192770	    143.92161297	    179.99999979	   1449.47980135	     50.99811270	     25.27788977	     12.97825813	     15.55866488	     38.46933371	    -38.67884350	    -45.00000000	    -45.00000000	    803.59285522	  -1172.02590243	    133.38308779	   -179.99999979	   -348.98571167	     18.74384804	      7.30120375	    -21.39300809
      4.04000000	    -36.00547045	    -14.93325859	     24.60736831	   -190.79034836	    819.00575283	      6.06908771	      8.75125816	    -45.00000000	     41.04327218	    -45.00000000	    -45.00000000	  -4057.00383690	  -3703.90538243	    143.91987223	    179.99999979	   1449.57347211	     51.25179822	     25.30277507	     12.68314015	     15.45656271	     38.59442948	    -38.78372358	    -45.00000000	    -45.00000000	    803.62797146	  -1171.97491284	    133.61374146	   -179.99999979	   -348.81474244	     19.14843459	      7.13262264	    -21.48469464
      4.05000000	    -36.17646812	    -14.57342762	     24.11105208	   -194.42860857	    820.40610211	      6.03807949	      8.80539390	    -45.00000000	     40.96985669	    -45.00000000	    -45.00000000	  -4057.17672109	  -3703.80175391	    143.79870151	    179.99999979	   1449.68352830	     51.47390039	     25.36874123	     12.44769090	     15.41580516	     38.48825029	    -38.68786151	    -45.00000000	    -45.00000000	    803.84170175	  -1171.81793160	    133.62508881	   -179.99999979	   -348.82482251	     19.61349348	      6.87116393	    -21.49682735
      4.06000000	    -36.30801250	    -14.05440576	     23.59169113	   -198.01365153	    821.73752726	      6.01834515	      8.88192070	    -45.00000000	     41.25058668	    -45.00000000	    -45.00000000	  -4057.52053834	  -3703.71048832	    143.70319681	    179.99999979	   1449.67844507	     51.70803270	     25.58883038	     12.39007806	     15.39541266	     38.12200064	    -38.79480668	    -45.00000000	    -45.00000000	    804.02902903	  -1171.87506653	    133.53111643	   -179.99999979	   -348.99160932	     20.03711275	      6.38945122	    -21.40475673
      4.07000000	    -36.48195102	    -13.64947421	     23.12072083	   -201.53901377	    823.00002740	      6.01050390	      8.86580673	    -45.00000000	     41.17059563	    -45.00000000	    -45.00000000	  -4057.61648120	  -3703.61752621	    143.69186663	    179.99999979	   1449.64670570	     51.89913232	     25.59838975	     12.16419518	     15.34804790	     38.15842247	    -38.74688196	    -45.00000000	    -45.00000000	    804.18363652	  -1171.73166926	    133.53527096	   -179.99999979	   -348.89670473	     20.60068481	      6.17437763	    -21.44132099
      4.08000000	    -36.64532918	    -13.18234010	     22.77364764	   -204.99886537	    824.19474786	      6.01599015	      8.78154381	    -45.00000000	     40.90619468	    -45.00000000	    -45.00000000	  -4057.63290434	  -3703.48798380	    143.91704691	    179.99999979	   1449.76367491	     52.01657643	     25.43594537	     11.74630357	     15.07457931	     38.55394051	    -38.83220309	    -45.00000000	    -45.00000000	    804.23037217	  -1171.61285959	    133.79497654	   -179.99999979	   -348.52983551	     21.29134098	      6.18897826	    -21.61834004
      4.09000000	    -36.71852515	    -12.90241413	     22.27374503	   -208.39372658	    825.32496692	      6.03680476	      8.96326407	    -45.00000000	     41.22071557	    -45.00000000	    -45.00000000	  -4058.00016161	  -3703.48896648	    143.71823067	    179.99999979	   1449.74042291	     52.23566445	     25.80024050	     11.82090857	     15.28835601	     37.94429250	    -38.63859385	    -45.00000000	    -45.00000000	    804.29592165	  -1171.63854823	    133.69623722	   -179.99999979	   -348.83593891	     22.03037725	      5.47126250	    -21.37499521
      4.10000000	    -36.84227774	    -12.47115275	     21.87658826	   -211.71165087	    826.38965678	      6.07444065	      8.92361763	    -45.00000000	     41.10066268	    -45.00000000	    -45.00000000	  -4058.09785550	  -3703.36295916	    143.74008360	    179.99999979	   1449.71291704	     52.42941690	     25.77563561	     11.57224796	     15.18451387	     38.01984837	    -38.56165421	    -45.00000000	    -45.00000000	    804.41280634	  -1171.53070570	    133.65454719	   -179.99999979	   -348.76002387	     22.93845793	      5.28896375	    -21.40850930
      4.11000000	    -36.97036744	    -12.09965909	     21.47774687	   -214.95261853	    827.39117867	      6.12970477	      8.90864213	    -45.00000000	     41.02222229	    -45.00000000	    -45.00000000	  -4058.20020358	  -3703.31844817	    143.77580031	    179.99999979	   1449.66665381	     52.65689268	     25.79198996	     11.35775583	     15.10588605	     38.02819895	    -38.46793588	    -45.00000000	    -45.00000000	    804.52387301	  -1171.44047047	    133.65954838	   -179.99999979	   -348.66691382	     23.93183025	      5.03022292	    -21.41122777
      4.12000000	    -37.08649446	    -11.75369317	     21.04707618	   -218.11240875	    828.32997820	      6.20190027	      8.89836592	    -45.00000000	     40.97642191	    -45.00000000	    -45.00000000	  -4058.29544793	  -3703.23837844	    143.78106428	    179.99999979	   1449.67293579	     52.91865993	     25.82536744	     11.14122518	     15.04973291	     38.01004734	    -38.37414527	    -45.00000000	    -45.00000000	    804.62788569	  -1171.41584248	    133.68035286	   -179.99999979	   -348.59316546	     25.05781461	      4.76524200	    -21.40186038
